# xmcd
#
# Track frame offsets:
#	150
#	10933
#	23726
#	35674
#	46642
#	57302
#	68952
#	79186
#	89389
#	101234
#	112163
#	123309
#	136493
#	147448
#	159419
#
# Disc length: 2251 seconds
#
# Revision: 1
# Processed by: cddbd v1.5.2PL0 Copyright (c) Steve Scherf et al.
# Submitted via: audiograbber 1.83.01
#
DISCID=cf08c90f
DTITLE=The Buckles - THE BUCKLES - Meet The Buckles
DYEAR=2007
DGENRE=Country
TTITLE0=Sea Of Heartbreak
TTITLE1=Grey Skies To Blue
TTITLE2=What A Way To Live
TTITLE3=Because
TTITLE4=I'll Give My Heart To You
TTITLE5=Excuse Me (I Think I've Got A Heartache)
TTITLE6=Honky Tonk Mind
TTITLE7=I Don't Want To Spoil The Party
TTITLE8=Talk To Me Lonesome Heart
TTITLE9=Radkey
TTITLE10=Tarnished Angel
TTITLE11=Eight Days A Week
TTITLE12=Playboy
TTITLE13=You Didn't Say Goodbye
TTITLE14=Buckles Fight Song
EXTD=
EXTT0=
EXTT1=
EXTT2=
EXTT3=
EXTT4=
EXTT5=
EXTT6=
EXTT7=
EXTT8=
EXTT9=
EXTT10=
EXTT11=
EXTT12=
EXTT13=
EXTT14=
PLAYORDER=
